<svg width="35" height="35" viewBox="0 0 35 35" fill="none" xmlns="http://www.w3.org/2000/svg">
<path d="M17.5359 33.2242C26.2203 33.2242 33.2603 26.1841 33.2603 17.4998C33.2603 8.81545 26.2203 1.77539 17.5359 1.77539C8.85158 1.77539 1.81152 8.81545 1.81152 17.4998C1.81152 26.1841 8.85158 33.2242 17.5359 33.2242Z" stroke="black" stroke-width="1.54867" stroke-miterlimit="1.5" stroke-linecap="round" stroke-linejoin="round"/>
<path fill-rule="evenodd" clip-rule="evenodd" d="M17.417 26.9342C15.6933 26.9441 9.68115 26.8399 9.68115 20.645V20.6076C9.70081 15.9123 13.323 12.7834 13.323 12.7834C13.323 12.7834 12.9162 14.511 14.0129 15.136C15.8152 15.7531 15.8152 13.0487 15.8152 12.0542C15.8152 10.4524 15.54 8.98818 14.3981 8.66979C18.4901 7.02082 21.2259 11.0951 20.6874 14.3557C20.5773 15.0259 20.6049 16.5137 21.5364 16.3584C23.1048 16.097 21.733 12.7834 21.733 12.7834C21.733 12.7834 25.4043 14.3557 25.4043 20.645C25.4043 26.8773 19.2271 26.9225 17.5369 26.9342C17.5211 26.9342 17.5074 26.9342 17.4916 26.9342C17.4661 26.9342 17.4425 26.9342 17.417 26.9342ZM18.1638 26.7416C18.3839 26.6178 18.5805 26.4429 18.7259 26.2523C19.0247 25.8592 19.1151 25.3364 19.1151 24.7841C19.1151 23.0152 17.1792 21.6434 17.02 21.6689C17.1752 21.9421 16.564 23.1803 15.9704 24.0274C15.4712 24.7389 15.1961 26.1795 16.3458 26.722C16.0471 26.6787 15.7444 26.6198 15.5046 26.5392C15.0585 26.3859 14.632 26.0302 14.3215 25.5545C13.7495 24.678 13.5726 23.3906 14.3981 22.2173C15.5046 20.645 17.1379 17.9484 16.8824 17.5003C17.1457 17.461 18.5274 18.3297 18.3722 21.0754C18.3545 21.4154 18.38 21.9225 18.8458 21.8458C19.63 21.7141 19.1662 20.645 19.1662 20.645C19.1662 20.645 20.6874 22.0306 20.6874 23.7896C20.6874 25.4091 19.5042 26.4468 18.1638 26.7416Z" fill="black"/>
</svg>
