<svg width="35" height="35" viewBox="0 0 35 35" fill="none" xmlns="http://www.w3.org/2000/svg">
<path d="M17.5359 33.1358C26.2203 33.1358 33.2603 26.0958 33.2603 17.4114C33.2603 8.72707 26.2203 1.68701 17.5359 1.68701C8.85158 1.68701 1.81152 8.72707 1.81152 17.4114C1.81152 26.0958 8.85158 33.1358 17.5359 33.1358Z" stroke="black" stroke-width="1.54867" stroke-miterlimit="1.5" stroke-linecap="round" stroke-linejoin="round"/>
<path fill-rule="evenodd" clip-rule="evenodd" d="M17.4332 7.92236L21.1608 13.2807L27.4357 15.1516L23.4647 20.3318L23.6151 26.8462L17.4332 24.6907L11.2513 26.8462L11.4016 20.3318L7.43066 15.1516L13.7056 13.2807L17.4332 7.92236ZM20.8907 19.5322C19.1124 21.3096 16.2244 21.3096 14.4461 19.5322C14.3046 19.391 14.0752 19.391 13.9337 19.5322C13.7925 19.6734 13.7925 19.9016 13.9337 20.0428C15.9949 22.1049 19.3419 22.1049 21.4031 20.0428C21.5443 19.9016 21.5443 19.6734 21.4031 19.5322C21.2616 19.391 21.0322 19.391 20.8907 19.5322ZM15.8113 15.6014C16.2911 15.6014 16.6805 15.9904 16.6805 16.4706C16.6805 16.9508 16.2911 17.3397 15.8113 17.3397C15.3318 17.3397 14.9422 16.9508 14.9422 16.4706C14.9422 15.9904 15.3318 15.6014 15.8113 15.6014ZM19.708 15.6014C20.1876 15.6014 20.5772 15.9904 20.5772 16.4706C20.5772 16.9508 20.1876 17.3397 19.708 17.3397C19.2282 17.3397 18.8388 16.9508 18.8388 16.4706C18.8388 15.9904 19.2282 15.6014 19.708 15.6014Z" fill="black"/>
</svg>
