<svg width="35" height="35" viewBox="0 0 35 35" fill="none" xmlns="http://www.w3.org/2000/svg">
<path d="M17.5359 33.2242C26.2203 33.2242 33.2603 26.1841 33.2603 17.4998C33.2603 8.81545 26.2203 1.77539 17.5359 1.77539C8.85158 1.77539 1.81152 8.81545 1.81152 17.4998C1.81152 26.1841 8.85158 33.2242 17.5359 33.2242Z" stroke="black" stroke-width="1.54867" stroke-miterlimit="1.5" stroke-linecap="round" stroke-linejoin="round"/>
<path fill-rule="evenodd" clip-rule="evenodd" d="M17.5427 25.7238H19.4442C19.4442 26.7505 18.5929 27.584 17.5427 27.584C16.4939 27.584 15.6411 26.7505 15.6411 25.7238H17.5427ZM20.4681 21.8676H14.6172V23.0743H20.4681V21.8676ZM13.9136 19.953C11.9229 18.7568 10.5947 16.6078 10.5947 14.1578C10.5947 10.4064 13.7089 7.36084 17.5427 7.36084C21.3779 7.36084 24.4906 10.4064 24.4906 14.1578C24.4906 16.6118 23.1581 18.7639 21.1644 19.9589V21.1597H13.8507V19.953H13.9136ZM17.5427 9.81131C19.9957 9.81131 21.9864 11.7589 21.9864 14.1578C21.9864 14.4046 22.1912 14.6049 22.4428 14.6049C22.6959 14.6049 22.9006 14.4046 22.9006 14.1578C22.9006 11.2653 20.5003 8.91697 17.5427 8.91697C17.2911 8.91697 17.0863 9.1173 17.0863 9.36414C17.0863 9.61098 17.2911 9.81131 17.5427 9.81131ZM20.0293 23.7822H15.056V24.9889H20.0293V23.7822Z" fill="black"/>
</svg>
