<svg width="49" height="48" viewBox="0 0 49 48" fill="none" xmlns="http://www.w3.org/2000/svg">
<path d="M24.6197 47.1313C37.3404 47.1313 47.6525 36.8192 47.6525 24.0985C47.6525 11.3778 37.3404 1.06567 24.6197 1.06567C11.8991 1.06567 1.58691 11.3778 1.58691 24.0985C1.58691 36.8192 11.8991 47.1313 24.6197 47.1313Z" stroke="black" stroke-width="1.53024" stroke-miterlimit="1.5" stroke-linecap="round" stroke-linejoin="round"/>
<path fill-rule="evenodd" clip-rule="evenodd" d="M10.7969 15.5201V32.6926L19.5043 25.5299C19.7087 25.3601 20.0113 25.3889 20.1797 25.5962C20.3479 25.8006 20.3185 26.1028 20.1138 26.2698L11.5523 33.3115H37.6807L29.1192 26.2698C28.9148 26.1028 28.8852 25.8006 29.0536 25.5962C29.2217 25.3889 29.5243 25.3601 29.729 25.5299L38.4341 32.6897V15.5229L24.9299 27.168C24.7499 27.3235 24.4834 27.3235 24.3031 27.168L10.7969 15.5201ZM24.6167 26.1719L11.5336 14.8867H37.6997L24.6167 26.1719Z" fill="black"/>
</svg>
