<svg width="35" height="35" viewBox="0 0 35 35" fill="none" xmlns="http://www.w3.org/2000/svg">
<path d="M17.5359 33.2242C26.2203 33.2242 33.2603 26.1841 33.2603 17.4998C33.2603 8.81545 26.2203 1.77539 17.5359 1.77539C8.85158 1.77539 1.81152 8.81545 1.81152 17.4998C1.81152 26.1841 8.85158 33.2242 17.5359 33.2242Z" stroke="black" stroke-width="1.54867" stroke-miterlimit="1.5" stroke-linecap="round" stroke-linejoin="round"/>
<path fill-rule="evenodd" clip-rule="evenodd" d="M18.5329 7.4089C17.8744 7.34482 17.2109 7.34482 16.5524 7.4089L16.4238 9.11344C15.6813 9.2117 14.9546 9.40607 14.2626 9.6923L13.2981 8.28039C12.6958 8.5538 12.1214 8.88488 11.5829 9.26937L12.3248 10.8116C11.7305 11.2687 11.1986 11.8006 10.7426 12.3944L9.20082 11.6532C8.81613 12.1915 8.4844 12.766 8.21035 13.3684L9.62397 14.3318C9.33732 15.0238 9.14251 15.7501 9.04468 16.4934L7.33843 16.6216C7.27456 17.2795 7.27456 17.9438 7.33843 18.6017L9.04468 18.7298C9.14251 19.4732 9.33732 20.1994 9.62397 20.8915L8.21035 21.857C8.4844 22.4593 8.81613 23.0339 9.20082 23.5722L10.7426 22.8288C11.1986 23.4248 11.7305 23.9567 12.3248 24.4116L11.5829 25.9538C12.1214 26.3383 12.6958 26.6694 13.2981 26.9449L14.2626 25.5309C14.9546 25.8171 15.6813 26.0115 16.4238 26.1098L16.5524 27.8165C17.2109 27.8805 17.8744 27.8805 18.5329 27.8165L18.6615 26.1098C19.404 26.0115 20.1306 25.8171 20.8227 25.5309L21.7871 26.9449C22.3895 26.6694 22.9639 26.3383 23.5023 25.9538L22.7605 24.4116C23.3547 23.9567 23.8866 23.4248 24.3427 22.8288L25.8844 23.5722C26.2691 23.0339 26.6009 22.4593 26.8749 21.857L25.4613 20.8915C25.7479 20.1994 25.9428 19.4732 26.0406 18.7298L27.7468 18.6017C27.8107 17.9438 27.8107 17.2795 27.7468 16.6216L26.0406 16.4934C25.9428 15.7501 25.7479 15.0238 25.4613 14.3318L26.8749 13.3684C26.6009 12.766 26.2691 12.1915 25.8844 11.6532L24.3427 12.3944C23.8866 11.8006 23.3547 11.2687 22.7605 10.8116L23.5023 9.26937C22.9639 8.88488 22.3895 8.5538 21.7871 8.28039L20.8227 9.6923C20.1306 9.40607 19.404 9.2117 18.6615 9.11344L18.5329 7.4089ZM22.6108 18.465C22.2039 20.8957 20.0881 22.7519 17.5426 22.7519C16.9178 22.7519 16.3189 22.6387 15.7644 22.4337L18.0559 18.465H22.6108ZM14.2816 13.6418L16.5748 17.6127L14.2826 21.5835C13.1356 20.6394 12.4038 19.2104 12.4038 17.6127C12.4038 16.0128 13.1352 14.5838 14.2816 13.6418ZM22.6106 16.7561H18.0534L15.7631 12.7895C16.3178 12.5845 16.9172 12.4734 17.5426 12.4734C20.0875 12.4734 22.203 14.3275 22.6106 16.7561Z" fill="black"/>
</svg>
