<svg width="34" height="34" viewBox="0 0 34 34" fill="none" xmlns="http://www.w3.org/2000/svg">
<path d="M16.7244 32.4488C25.4087 32.4488 32.4488 25.4088 32.4488 16.7244C32.4488 8.04006 25.4087 1 16.7244 1C8.04005 1 1 8.04006 1 16.7244C1 25.4088 8.04005 32.4488 16.7244 32.4488Z" stroke="black" stroke-width="1.54867" stroke-miterlimit="1.5" stroke-linecap="round" stroke-linejoin="round"/>
<path d="M22.3121 24.8043H11.1361C9.59177 24.8043 8.33008 23.5898 8.33008 22.1032V11.3452C8.33008 9.85855 9.59177 8.64404 11.1361 8.64404H22.3121C23.8565 8.64404 25.1182 9.85855 25.1182 11.3452V22.1032C25.1182 23.5965 23.8634 24.8043 22.3121 24.8043Z" fill="black"/>
<path d="M16.7275 20.8754C15.5761 20.8754 14.4937 20.444 13.6801 19.6609C12.8666 18.8778 12.4185 17.8358 12.4185 16.7275C12.4185 15.6192 12.8666 14.5772 13.6801 13.7941C14.4937 13.011 15.5761 12.5796 16.7275 12.5796C17.8789 12.5796 18.9613 13.011 19.7749 13.7941C20.5884 14.5772 21.0366 15.6192 21.0366 16.7275C21.0366 17.8358 20.5884 18.8778 19.7749 19.6609C18.9544 20.444 17.8789 20.8754 16.7275 20.8754ZM16.7275 13.4623C14.8591 13.4623 13.3354 14.9223 13.3354 16.7275C13.3354 18.526 14.8522 19.9928 16.7275 19.9928C18.5959 19.9928 20.1196 18.5327 20.1196 16.7275C20.1127 14.929 18.5959 13.4623 16.7275 13.4623Z" fill="white"/>
<path d="M21.8767 12.4429C22.3336 12.4429 22.704 12.0864 22.704 11.6465C22.704 11.2067 22.3336 10.8501 21.8767 10.8501C21.4197 10.8501 21.0493 11.2067 21.0493 11.6465C21.0493 12.0864 21.4197 12.4429 21.8767 12.4429Z" fill="white"/>
</svg>
