<svg width="49" height="49" viewBox="0 0 49 49" fill="none" xmlns="http://www.w3.org/2000/svg">
<path d="M24.3662 48.0657C37.3449 48.0657 47.8662 37.5444 47.8662 24.5657C47.8662 11.587 37.3449 1.06567 24.3662 1.06567C11.3875 1.06567 0.866211 11.587 0.866211 24.5657C0.866211 37.5444 11.3875 48.0657 24.3662 48.0657Z" stroke="black" stroke-width="1.53024" stroke-miterlimit="1.5" stroke-linecap="round" stroke-linejoin="round"/>
<path d="M30.6234 33.965H18.1091C16.3798 33.965 14.967 32.5522 14.967 30.8229V18.3086C14.967 16.5793 16.3798 15.1665 18.1091 15.1665H30.6234C32.3527 15.1665 33.7655 16.5793 33.7655 18.3086V30.8229C33.7655 32.5599 32.3605 33.965 30.6234 33.965Z" fill="black"/>
<path d="M24.3702 29.3948C23.081 29.3948 21.8689 28.893 20.9579 27.982C20.047 27.071 19.5452 25.859 19.5452 24.5697C19.5452 23.2804 20.047 22.0684 20.9579 21.1574C21.8689 20.2464 23.081 19.7446 24.3702 19.7446C25.6595 19.7446 26.8716 20.2464 27.7825 21.1574C28.6935 22.0684 29.1953 23.2804 29.1953 24.5697C29.1953 25.859 28.6935 27.071 27.7825 27.982C26.8638 28.893 25.6595 29.3948 24.3702 29.3948ZM24.3702 20.7714C22.2781 20.7714 20.5719 22.4698 20.5719 24.5697C20.5719 26.6619 22.2704 28.368 24.3702 28.368C26.4624 28.368 28.1685 26.6696 28.1685 24.5697C28.1608 22.4776 26.4624 20.7714 24.3702 20.7714Z" fill="white"/>
<path d="M30.1357 19.586C30.6473 19.586 31.0621 19.1712 31.0621 18.6596C31.0621 18.1479 30.6473 17.7332 30.1357 17.7332C29.624 17.7332 29.2092 18.1479 29.2092 18.6596C29.2092 19.1712 29.624 19.586 30.1357 19.586Z" fill="white"/>
</svg>
